# xmcd
#
# Track frame offsets: 
#        150
#        19071
#        37595
#        57443
#        77685
#        99404
#        120322
#        136843
#        156763
#        177669
#        196191
#        210242
#
# Disc length: 2894 seconds
#
# Revision: 1
# Processed by: cddbd v1.5.1PL0 Copyright (c) Steve Scherf et al.
# Submitted via: ExactAudioCopy v0.90b4
#
DISCID=8c0b4c0c
DTITLE=Shania Twain - The Woman In Me
DYEAR=1995
DGENRE=Country
TTITLE0=Home Ain't Where His Heart Is Anymore
TTITLE1=Any Man Of Mine
TTITLE2=Whose Bed Have Your Boots Been Under
TTITLE3=If You're Not In It For Love, I'm Outta Here!
TTITLE4=The Woman In Me
TTITLE5=Is There Life After Love?
TTITLE6=If It Don't Take Two
TTITLE7=You Win My Love
TTITLE8=Raining On Our Love
TTITLE9=Leaving Is The Only Way Out
TTITLE10=No One Needs To Know
TTITLE11=God Bless The Child
EXTD=
EXTT0=
EXTT1=
EXTT2=
EXTT3=
EXTT4=
EXTT5=
EXTT6=
EXTT7=
EXTT8=
EXTT9=
EXTT10=
EXTT11=
PLAYORDER=
